<svg xmlns="http://www.w3.org/2000/svg" viewBox="0 0 1200 720" role="img" aria-label="RentLedger support team and property dashboard">
  <rect width="1200" height="720" fill="#eef5f2"/>
  <rect x="104" y="112" width="458" height="470" rx="34" fill="#fffdf8"/>
  <rect x="162" y="174" width="214" height="30" rx="15" fill="#0f766e"/>
  <rect x="162" y="254" width="320" height="22" rx="11" fill="#d4e2df"/>
  <rect x="162" y="312" width="284" height="22" rx="11" fill="#d4e2df"/>
  <rect x="162" y="408" width="132" height="86" rx="20" fill="#f0bd55"/>
  <rect x="330" y="408" width="132" height="86" rx="20" fill="#0f766e"/>
  <g transform="translate(690 126)">
    <circle cx="112" cy="96" r="76" fill="#f0bd55"/>
    <path d="M4 314c30-92 86-138 170-138s140 46 170 138" fill="#102b35"/>
    <circle cx="332" cy="150" r="62" fill="#d9a24e"/>
    <path d="M226 344c22-78 66-118 132-118s110 40 132 118" fill="#0f766e"/>
  </g>
</svg>
