<svg xmlns="http://www.w3.org/2000/svg" viewBox="0 0 1200 720" role="img" aria-label="Vacant apartment balconies">
  <rect width="1200" height="720" fill="#dfeceb"/>
  <g transform="translate(156 82)">
    <rect x="0" y="90" width="888" height="482" rx="24" fill="#fbf7ea"/>
    <rect x="62" y="0" width="310" height="572" rx="20" fill="#15313a"/>
    <rect x="420" y="36" width="372" height="536" rx="20" fill="#e4b348"/>
    <g fill="#d8e5e3">
      <rect x="62" y="78" width="108" height="82" rx="8"/>
      <rect x="218" y="78" width="108" height="82" rx="8"/>
      <rect x="62" y="214" width="108" height="82" rx="8"/>
      <rect x="218" y="214" width="108" height="82" rx="8"/>
      <rect x="62" y="350" width="108" height="82" rx="8"/>
      <rect x="218" y="350" width="108" height="82" rx="8"/>
    </g>
    <g fill="#15313a">
      <rect x="474" y="104" width="94" height="72" rx="8"/>
      <rect x="638" y="104" width="94" height="72" rx="8"/>
      <rect x="474" y="246" width="94" height="72" rx="8"/>
      <rect x="638" y="246" width="94" height="72" rx="8"/>
      <rect x="474" y="388" width="94" height="72" rx="8"/>
      <rect x="638" y="388" width="94" height="72" rx="8"/>
    </g>
    <path d="M40 488h808" stroke="#0f766e" stroke-width="22" stroke-linecap="round"/>
  </g>
</svg>
