<svg xmlns="http://www.w3.org/2000/svg" viewBox="0 0 1200 720" role="img" aria-label="Receipt and report export">
  <rect width="1200" height="720" fill="#eaf3f6"/>
  <g transform="translate(170 90)">
    <path d="M0 0h374v540l-44-26-44 26-44-26-44 26-44-26-44 26-44-26-44 26Z" fill="#fffdf8"/>
    <rect x="62" y="78" width="204" height="28" rx="14" fill="#0f766e"/>
    <rect x="62" y="158" width="256" height="18" rx="9" fill="#d2e2df"/>
    <rect x="62" y="214" width="256" height="18" rx="9" fill="#d2e2df"/>
    <rect x="62" y="270" width="196" height="18" rx="9" fill="#d2e2df"/>
    <rect x="62" y="372" width="250" height="58" rx="20" fill="#f0bd55"/>
  </g>
  <g transform="translate(620 156)">
    <rect width="376" height="420" rx="30" fill="#ffffff"/>
    <rect x="58" y="68" width="174" height="26" rx="13" fill="#102b35"/>
    <rect x="58" y="132" width="72" height="206" rx="18" fill="#0f766e"/>
    <rect x="158" y="194" width="72" height="144" rx="18" fill="#f0bd55"/>
    <rect x="258" y="102" width="72" height="236" rx="18" fill="#5bb7aa"/>
  </g>
</svg>
