<svg xmlns="http://www.w3.org/2000/svg" viewBox="0 0 1200 720" role="img" aria-label="WhatsApp rent reminder conversation">
  <rect width="1200" height="720" fill="#e7f4ed"/>
  <rect x="428" y="70" width="344" height="580" rx="42" fill="#102b35"/>
  <rect x="456" y="126" width="288" height="456" rx="28" fill="#f8fffc"/>
  <circle cx="600" cy="618" r="20" fill="#263b46"/>
  <path d="M512 206h176" stroke="#0f766e" stroke-width="44" stroke-linecap="round"/>
  <path d="M512 294h132" stroke="#d7e5e2" stroke-width="44" stroke-linecap="round"/>
  <path d="M556 382h132" stroke="#f0bd55" stroke-width="44" stroke-linecap="round"/>
  <path d="M512 470h176" stroke="#d7e5e2" stroke-width="44" stroke-linecap="round"/>
  <g transform="translate(168 196)">
    <circle cx="94" cy="94" r="94" fill="#0f766e"/>
    <path d="M58 138 40 176l42-16c42 22 94 6 118-34 28-46 12-106-34-134S60-20 32 26 12 116 58 138Z" fill="#ffffff" opacity=".92"/>
  </g>
  <g transform="translate(868 220)">
    <rect width="186" height="132" rx="30" fill="#ffffff"/>
    <path d="M52 72h82M52 104h52" stroke="#0f766e" stroke-width="18" stroke-linecap="round"/>
  </g>
</svg>
