<svg xmlns="http://www.w3.org/2000/svg" viewBox="0 0 1200 720" role="img" aria-label="Rent status board">
  <rect width="1200" height="720" fill="#f7f2e7"/>
  <rect x="128" y="90" width="944" height="540" rx="32" fill="#ffffff"/>
  <rect x="180" y="146" width="252" height="36" rx="18" fill="#0f766e"/>
  <g fill="#e8f2f0">
    <rect x="180" y="238" width="840" height="72" rx="18"/>
    <rect x="180" y="340" width="840" height="72" rx="18"/>
    <rect x="180" y="442" width="840" height="72" rx="18"/>
  </g>
  <g fill="#102b35">
    <rect x="220" y="262" width="150" height="24" rx="12"/>
    <rect x="220" y="364" width="210" height="24" rx="12"/>
    <rect x="220" y="466" width="178" height="24" rx="12"/>
  </g>
  <rect x="760" y="252" width="162" height="44" rx="22" fill="#0f766e"/>
  <rect x="760" y="354" width="162" height="44" rx="22" fill="#f0bc55"/>
  <rect x="760" y="456" width="162" height="44" rx="22" fill="#d95f50"/>
  <path d="M516 286h156M516 388h156M516 490h156" stroke="#c9d9d6" stroke-width="18" stroke-linecap="round"/>
</svg>
