<svg xmlns="http://www.w3.org/2000/svg" viewBox="0 0 1200 720" role="img" aria-label="RentLedger dashboard over Kampala apartments">
  <defs>
    <linearGradient id="sky" x1="0" y1="0" x2="1" y2="1">
      <stop offset="0" stop-color="#d9f2ee"/>
      <stop offset="0.48" stop-color="#f6f3e8"/>
      <stop offset="1" stop-color="#f4c76d"/>
    </linearGradient>
    <linearGradient id="glass" x1="0" y1="0" x2="1" y2="1">
      <stop offset="0" stop-color="#f8fffc"/>
      <stop offset="1" stop-color="#d8e8e6"/>
    </linearGradient>
    <linearGradient id="phone" x1="0" y1="0" x2="0" y2="1">
      <stop offset="0" stop-color="#182331"/>
      <stop offset="1" stop-color="#06171a"/>
    </linearGradient>
  </defs>
  <rect width="1200" height="720" fill="url(#sky)"/>
  <path d="M0 536 C180 500 273 548 430 512 C620 468 722 552 895 506 C1030 470 1110 492 1200 456 V720 H0Z" fill="#0f766e" opacity=".16"/>
  <g transform="translate(88 150)">
    <rect x="0" y="100" width="264" height="360" rx="14" fill="#fbf8ed"/>
    <rect x="30" y="56" width="210" height="404" rx="18" fill="#e9b84f"/>
    <rect x="58" y="92" width="54" height="62" rx="6" fill="#17303a"/>
    <rect x="140" y="92" width="54" height="62" rx="6" fill="#17303a"/>
    <rect x="58" y="184" width="54" height="62" rx="6" fill="#17303a"/>
    <rect x="140" y="184" width="54" height="62" rx="6" fill="#17303a"/>
    <rect x="58" y="276" width="54" height="62" rx="6" fill="#17303a"/>
    <rect x="140" y="276" width="54" height="62" rx="6" fill="#17303a"/>
    <rect x="92" y="374" width="88" height="86" rx="8" fill="#102c34"/>
  </g>
  <g transform="translate(370 116)">
    <rect x="0" y="34" width="320" height="462" rx="18" fill="#ffffff"/>
    <rect x="28" y="0" width="264" height="496" rx="20" fill="#c9d9dc"/>
    <rect x="58" y="52" width="74" height="84" rx="8" fill="#102b35"/>
    <rect x="176" y="52" width="74" height="84" rx="8" fill="#102b35"/>
    <rect x="58" y="178" width="74" height="84" rx="8" fill="#102b35"/>
    <rect x="176" y="178" width="74" height="84" rx="8" fill="#102b35"/>
    <rect x="58" y="304" width="74" height="84" rx="8" fill="#102b35"/>
    <rect x="176" y="304" width="74" height="84" rx="8" fill="#102b35"/>
  </g>
  <g transform="translate(716 128)">
    <rect x="0" y="0" width="286" height="500" rx="32" fill="url(#phone)"/>
    <rect x="22" y="44" width="242" height="410" rx="24" fill="#eef8f7"/>
    <rect x="50" y="78" width="92" height="22" rx="11" fill="#0f766e"/>
    <rect x="50" y="126" width="186" height="68" rx="16" fill="#ffffff"/>
    <rect x="68" y="146" width="88" height="14" rx="7" fill="#d7e5e4"/>
    <rect x="68" y="170" width="142" height="12" rx="6" fill="#f5c76a"/>
    <rect x="50" y="218" width="82" height="86" rx="18" fill="#0f766e"/>
    <rect x="154" y="218" width="82" height="86" rx="18" fill="#f4b84d"/>
    <rect x="50" y="330" width="186" height="26" rx="13" fill="#d8e8e6"/>
    <rect x="50" y="376" width="150" height="26" rx="13" fill="#d8e8e6"/>
  </g>
</svg>
