<svg xmlns="http://www.w3.org/2000/svg" viewBox="0 0 1200 720" role="img" aria-label="Apartment rental block">
  <rect width="1200" height="720" fill="#dce9eb"/>
  <rect x="188" y="92" width="824" height="540" rx="28" fill="#fff7e6"/>
  <rect x="240" y="130" width="260" height="502" rx="18" fill="#15313a"/>
  <rect x="548" y="164" width="350" height="468" rx="18" fill="#e7b64d"/>
  <g fill="#d9e7e5">
    <rect x="282" y="180" width="70" height="72" rx="8"/>
    <rect x="390" y="180" width="70" height="72" rx="8"/>
    <rect x="282" y="300" width="70" height="72" rx="8"/>
    <rect x="390" y="300" width="70" height="72" rx="8"/>
    <rect x="282" y="420" width="70" height="72" rx="8"/>
    <rect x="390" y="420" width="70" height="72" rx="8"/>
  </g>
  <g fill="#15313a">
    <rect x="606" y="224" width="82" height="68" rx="8"/>
    <rect x="758" y="224" width="82" height="68" rx="8"/>
    <rect x="606" y="354" width="82" height="68" rx="8"/>
    <rect x="758" y="354" width="82" height="68" rx="8"/>
  </g>
</svg>
