<svg xmlns="http://www.w3.org/2000/svg" viewBox="0 0 1200 720" role="img" aria-label="Tenant handover at a rental door">
  <rect width="1200" height="720" fill="#eaf2ef"/>
  <rect x="652" y="78" width="326" height="568" rx="18" fill="#9b6a3f"/>
  <rect x="690" y="118" width="250" height="488" rx="12" fill="#c99656"/>
  <rect x="720" y="148" width="190" height="152" rx="10" fill="#19323b"/>
  <circle cx="916" cy="384" r="16" fill="#f0c15a"/>
  <g transform="translate(170 180)">
    <path d="M110 0h142c58 0 106 48 106 106v220H4V106C4 48 52 0 110 0Z" fill="#fffdf8"/>
    <rect x="62" y="86" width="238" height="238" rx="22" fill="#dce8e7"/>
    <path d="M114 324v112h138V324" fill="#0f766e"/>
    <circle cx="182" cy="144" r="54" fill="#f0c15a"/>
    <path d="M106 254c18-52 55-78 78-78s58 26 76 78" fill="none" stroke="#17323a" stroke-width="24" stroke-linecap="round"/>
  </g>
  <g transform="translate(500 230)">
    <path d="M0 116 C74 42 166 42 240 116" fill="none" stroke="#684b36" stroke-width="42" stroke-linecap="round"/>
    <circle cx="250" cy="120" r="28" fill="#684b36"/>
    <g transform="translate(246 126)">
      <circle cx="0" cy="0" r="26" fill="none" stroke="#e6b54e" stroke-width="12"/>
      <rect x="-6" y="25" width="12" height="112" rx="6" fill="#e6b54e"/>
      <rect x="0" y="82" width="46" height="14" rx="7" fill="#e6b54e"/>
      <rect x="0" y="112" width="34" height="14" rx="7" fill="#e6b54e"/>
    </g>
  </g>
</svg>
