<svg xmlns="http://www.w3.org/2000/svg" viewBox="0 0 1200 720" role="img" aria-label="Mobile money payment at a counter">
  <rect width="1200" height="720" fill="#f4efe3"/>
  <rect y="474" width="1200" height="246" fill="#b9824a"/>
  <g transform="translate(164 142)">
    <rect x="0" y="0" width="300" height="462" rx="34" fill="#0d1d26"/>
    <rect x="26" y="56" width="248" height="338" rx="24" fill="#eff8f6"/>
    <circle cx="150" cy="428" r="18" fill="#263744"/>
    <rect x="58" y="98" width="92" height="22" rx="11" fill="#0f766e"/>
    <rect x="58" y="150" width="184" height="70" rx="18" fill="#ffffff"/>
    <rect x="80" y="172" width="108" height="14" rx="7" fill="#d1dfdd"/>
    <rect x="80" y="196" width="132" height="12" rx="6" fill="#f0bc55"/>
    <path d="M78 278h144" stroke="#0f766e" stroke-width="18" stroke-linecap="round"/>
    <path d="M78 324h92" stroke="#d4e2e0" stroke-width="18" stroke-linecap="round"/>
  </g>
  <g transform="translate(620 256)">
    <rect x="0" y="84" width="360" height="170" rx="22" fill="#102b35"/>
    <rect x="34" y="116" width="292" height="104" rx="14" fill="#233847"/>
    <rect x="58" y="136" width="126" height="26" rx="13" fill="#57c3b1"/>
    <rect x="212" y="136" width="82" height="26" rx="13" fill="#f0bc55"/>
    <circle cx="84" cy="196" r="16" fill="#f7f1df"/>
    <circle cx="138" cy="196" r="16" fill="#f7f1df"/>
    <circle cx="192" cy="196" r="16" fill="#f7f1df"/>
    <path d="M72 84 C42 14 88 -18 142 34 C170 62 202 62 228 34 C268 -10 320 16 296 84Z" fill="#9d6c43"/>
  </g>
  <path d="M466 336 C550 316 596 320 662 350" fill="none" stroke="#745438" stroke-width="44" stroke-linecap="round"/>
  <circle cx="668" cy="352" r="26" fill="#745438"/>
</svg>
