<svg xmlns="http://www.w3.org/2000/svg" viewBox="0 0 1200 720" role="img" aria-label="Landlord desk with property records">
  <defs>
    <linearGradient id="desk" x1="0" y1="0" x2="1" y2="1">
      <stop offset="0" stop-color="#f4e4c0"/>
      <stop offset="1" stop-color="#b9874c"/>
    </linearGradient>
    <linearGradient id="paper" x1="0" y1="0" x2="1" y2="1">
      <stop offset="0" stop-color="#ffffff"/>
      <stop offset="1" stop-color="#eef6f5"/>
    </linearGradient>
  </defs>
  <rect width="1200" height="720" fill="url(#desk)"/>
  <rect x="96" y="96" width="430" height="528" rx="28" fill="url(#paper)" transform="rotate(-5 311 360)"/>
  <rect x="150" y="150" width="234" height="26" rx="13" fill="#0f766e"/>
  <rect x="150" y="216" width="322" height="18" rx="9" fill="#d4e2e0"/>
  <rect x="150" y="260" width="322" height="18" rx="9" fill="#d4e2e0"/>
  <rect x="150" y="304" width="220" height="18" rx="9" fill="#f2bf5a"/>
  <g transform="translate(610 120) rotate(7)">
    <rect width="310" height="520" rx="34" fill="#10212b"/>
    <rect x="25" y="54" width="260" height="398" rx="24" fill="#f8fffc"/>
    <rect x="52" y="90" width="154" height="20" rx="10" fill="#0f766e"/>
    <rect x="52" y="142" width="206" height="64" rx="16" fill="#e7f1ef"/>
    <rect x="52" y="232" width="92" height="78" rx="18" fill="#f5c05c"/>
    <rect x="166" y="232" width="92" height="78" rx="18" fill="#0f766e"/>
    <rect x="52" y="344" width="206" height="22" rx="11" fill="#d6e4e2"/>
    <rect x="52" y="388" width="158" height="22" rx="11" fill="#d6e4e2"/>
  </g>
  <g transform="translate(878 94)">
    <path d="M54 0h110c28 0 50 22 50 50v152c0 26-21 47-47 47H47c-26 0-47-21-47-47V54C0 24 24 0 54 0Z" fill="#fbf6e8"/>
    <rect x="34" y="42" width="146" height="34" rx="17" fill="#0f766e"/>
    <rect x="34" y="108" width="146" height="18" rx="9" fill="#d7e4e2"/>
    <rect x="34" y="150" width="102" height="18" rx="9" fill="#f2bf5a"/>
  </g>
</svg>
